STARTFONT 2.1
FONT -Monotype-Arial Narrow-Regular-I-Normal--36-360-75-75-P-156-iso8859-4
SIZE 36 75 75
FONTBOUNDINGBOX 41 43 -8 -8

STARTPROPERTIES 24
FOUNDRY "Monotype"
FAMILY_NAME "Arial Narrow"
WEIGHT_NAME "Regular"
SLANT "I"
SETWIDTH_NAME "Normal"
ADD_STYLE_NAME ""
PIXEL_SIZE 36
POINT_SIZE 360
RESOLUTION_X 75
RESOLUTION_Y 75
SPACING "P"
AVERAGE_WIDTH 156
CHARSET_REGISTRY "iso8859"
CHARSET_ENCODING "4"
FACE_NAME "Arial Narrow Italic ISO Latin4"
_DEC_DEVICE_FONTNAMES "PS=arialnarrow-it-lat4"
COPYRIGHT "Copyright (c) 1993 Monotype Typography Ltd."
CAP_HEIGHT 30
X_HEIGHT 22
WEIGHT 10
QUAD_WIDTH 19
DEFAULT_CHAR 160
FONT_DESCENT 8
FONT_ASCENT 35
ENDPROPERTIES

CHARS 191

STARTCHAR space
ENCODING 32
SWIDTH 228 0
DWIDTH 9 0
BBX 0 0 0 0
BITMAP
ENDCHAR

STARTCHAR exclam
ENCODING 33
SWIDTH 228 0
DWIDTH 9 0
BBX 7 28 2 0
BITMAP
0E
0E
0E
1E
1E
1E
1C
1C
1C
1C
18
38
38
38
38
30
30
30
30
20
60
00
00
00
E0
E0
E0
E0
ENDCHAR

STARTCHAR quotedbl
ENCODING 34
SWIDTH 291 0
DWIDTH 11 0
BBX 9 10 4 18
BITMAP
7380
7380
7380
F780
E700
E700
E700
C700
C600
C600
ENDCHAR

STARTCHAR numbersign
ENCODING 35
SWIDTH 456 0
DWIDTH 17 0
BBX 16 28 2 0
BITMAP
070E
070E
060E
060C
060C
060C
0E0C
0C1C
FFFF
FFFF
FFFF
0C18
1C18
1C38
1830
1830
1830
FFFF
FFFF
FFFF
3060
3060
3060
3060
70E0
60E0
60C0
60C0
ENDCHAR

STARTCHAR dollar
ENCODING 36
SWIDTH 456 0
DWIDTH 17 0
BBX 16 32 2 -3
BITMAP
0030
00E0
07FC
0FFE
1E6E
1C67
3867
3843
3840
38C0
38C0
1CC0
1F80
0FC0
07E0
01F8
01BC
019C
011E
010E
C30E
E30E
E30E
E21C
F21C
7E38
3FF8
1FF0
0780
0400
0400
0C00
ENDCHAR

STARTCHAR percent
ENCODING 37
SWIDTH 729 0
DWIDTH 28 0
BBX 24 29 3 -1
BITMAP
1F000C
3F801C
79C038
71C030
E0C070
E1C060
C1C0C0
C1C1C0
C1C180
C18380
C38700
E70600
7F0E00
3C1C00
00187C
0038FE
0071C6
0061C7
00E387
00C387
018307
038307
030306
07030E
0E030E
0C039C
1C01F8
3800F0
700000
ENDCHAR

STARTCHAR ampersand
ENCODING 38
SWIDTH 547 0
DWIDTH 21 0
BBX 18 28 2 0
BITMAP
007000
01F800
03FC00
038E00
070E00
070E00
070E00
070C00
071C00
073800
03F000
03E000
07C000
1FC000
3EE000
78E000
70E100
7073C0
E07380
E03B80
E03F00
E01E00
F01E00
703F00
787F00
3FF780
1FE380
07C100
ENDCHAR

STARTCHAR quoteright
ENCODING 39
SWIDTH 182 0
DWIDTH 7 0
BBX 5 10 4 18
BITMAP
78
78
70
70
10
30
20
60
C0
80
ENDCHAR

STARTCHAR parenleft
ENCODING 40
SWIDTH 273 0
DWIDTH 10 0
BBX 10 36 2 -8
BITMAP
00C0
0180
0180
0300
0700
0600
0E00
0C00
1C00
1800
3800
3800
3000
7000
7000
7000
6000
E000
E000
E000
E000
E000
E000
E000
E000
E000
E000
E000
6000
6000
7000
7000
7000
3000
3000
3800
ENDCHAR

STARTCHAR parenright
ENCODING 41
SWIDTH 273 0
DWIDTH 10 0
BBX 10 36 -1 -8
BITMAP
0700
0300
0300
0380
0380
0180
0180
0180
01C0
01C0
01C0
01C0
01C0
01C0
01C0
01C0
01C0
01C0
01C0
0180
0380
0380
0380
0300
0700
0700
0600
0E00
0C00
1C00
1800
3800
3000
6000
6000
C000
ENDCHAR

STARTCHAR asterisk
ENCODING 42
SWIDTH 319 0
DWIDTH 12 0
BBX 10 12 4 16
BITMAP
0C00
0C00
0C00
CC80
FB80
FFC0
1C00
1E00
3700
7380
6300
2100
ENDCHAR

STARTCHAR plus
ENCODING 43
SWIDTH 479 0
DWIDTH 18 0
BBX 15 17 3 5
BITMAP
0380
0380
0380
0380
0380
0380
0380
FFFE
FFFE
FFFE
0380
0380
0380
0380
0380
0380
0380
ENDCHAR

STARTCHAR comma
ENCODING 44
SWIDTH 228 0
DWIDTH 9 0
BBX 4 10 1 -6
BITMAP
70
70
70
70
30
20
20
60
C0
80
ENDCHAR

STARTCHAR minus
ENCODING 45
SWIDTH 479 0
DWIDTH 18 0
BBX 15 3 3 12
BITMAP
FFFE
FFFE
FFFE
ENDCHAR

STARTCHAR period
ENCODING 46
SWIDTH 228 0
DWIDTH 9 0
BBX 4 4 2 0
BITMAP
F0
E0
E0
E0
ENDCHAR

STARTCHAR slash
ENCODING 47
SWIDTH 228 0
DWIDTH 9 0
BBX 15 28 -2 0
BITMAP
000E
000C
001C
0018
0018
0030
0030
0070
0060
00E0
00C0
01C0
0180
0180
0380
0300
0700
0600
0E00
0C00
0C00
1C00
1800
3800
3000
7000
6000
E000
ENDCHAR

STARTCHAR zero
ENCODING 48
SWIDTH 456 0
DWIDTH 17 0
BBX 16 28 2 0
BITMAP
00F0
03F8
07FC
0F0E
0E0E
1C06
1C07
3807
3807
3807
7007
7007
7007
7007
E006
E00E
E00E
E00E
E00C
E01C
E01C
E038
6038
7070
78F0
3FE0
1FC0
0F00
ENDCHAR

STARTCHAR one
ENCODING 49
SWIDTH 456 0
DWIDTH 17 0
BBX 10 27 5 0
BITMAP
00C0
01C0
03C0
0780
0F80
3F80
7D80
FB80
E300
8300
0700
0700
0700
0700
0600
0600
0E00
0E00
0E00
0E00
0C00
1C00
1C00
1C00
1C00
1C00
1800
ENDCHAR

STARTCHAR two
ENCODING 50
SWIDTH 456 0
DWIDTH 17 0
BBX 16 28 2 0
BITMAP
01F0
07F8
0FFC
0E1E
1C0E
1C07
1807
3807
0807
0007
000E
000E
001E
003C
0078
00F0
01E0
03C0
0780
0F00
1E00
1C00
3C00
7800
7000
7FFC
FFFC
FFFC
ENDCHAR

STARTCHAR three
ENCODING 51
SWIDTH 456 0
DWIDTH 17 0
BBX 16 28 2 0
BITMAP
01F0
03FC
07FC
0F1E
1E0F
1C07
1C07
0807
0007
0007
000E
001E
01FC
01F0
01F8
003C
001C
000E
000E
000E
E00E
E00E
701C
701C
3878
3FF0
1FE0
0780
ENDCHAR

STARTCHAR four
ENCODING 52
SWIDTH 456 0
DWIDTH 17 0
BBX 15 28 2 0
BITMAP
000E
000E
001C
003C
007C
007C
00EC
01DC
0198
0398
0738
0E38
0E38
1C38
3830
3030
7070
E070
FFFE
FFFE
FF7E
00E0
00E0
00E0
00E0
00E0
00C0
01C0
ENDCHAR

STARTCHAR five
ENCODING 53
SWIDTH 456 0
DWIDTH 17 0
BBX 16 27 2 0
BITMAP
07FF
0FFE
0FFE
0E00
0C00
1C00
1C00
1C00
19E0
3BF8
3FFC
3C3C
381C
300E
000E
000E
000E
000E
600E
E00C
E01C
E01C
7038
7878
3FF0
1FC0
0700
ENDCHAR

STARTCHAR six
ENCODING 54
SWIDTH 456 0
DWIDTH 17 0
BBX 15 28 3 0
BITMAP
01F0
03F8
07FC
0F1C
1E0C
1C0E
380E
3800
3800
71C0
77F0
7FF0
7C78
7838
F01C
F01C
E01C
E01C
E01C
E01C
E018
E038
6038
7070
38F0
3FE0
1FC0
0700
ENDCHAR

STARTCHAR seven
ENCODING 55
SWIDTH 456 0
DWIDTH 17 0
BBX 15 27 4 0
BITMAP
FFFE
FFFC
FFFC
001C
0038
0070
00E0
00E0
01C0
01C0
0380
0380
0700
0700
0E00
0E00
1C00
1C00
1C00
3800
3800
3800
7000
7000
7000
7000
7000
ENDCHAR

STARTCHAR eight
ENCODING 56
SWIDTH 456 0
DWIDTH 17 0
BBX 15 28 3 0
BITMAP
01E0
07F8
0FFC
1E1C
1C0E
380E
380E
380E
380E
180C
1C1C
0E78
07E0
1FF0
3C78
7838
7018
601C
E01C
E01C
E01C
E038
E038
7078
70F0
3FE0
1FC0
0F00
ENDCHAR

STARTCHAR nine
ENCODING 57
SWIDTH 456 0
DWIDTH 17 0
BBX 15 28 2 0
BITMAP
01E0
07F0
0FF8
1E3C
1C1C
380C
380E
700E
700E
700E
700E
700E
701E
701E
383E
3C7C
1FEC
0FDC
071C
0038
0038
E038
E070
60F0
71E0
7FC0
3F80
0E00
ENDCHAR

STARTCHAR colon
ENCODING 58
SWIDTH 228 0
DWIDTH 9 0
BBX 6 20 2 0
BITMAP
1C
1C
1C
3C
00
00
00
00
00
00
00
00
00
00
00
00
F0
E0
E0
E0
ENDCHAR

STARTCHAR semicolon
ENCODING 59
SWIDTH 228 0
DWIDTH 9 0
BBX 7 26 1 -6
BITMAP
0E
0E
0E
1E
00
00
00
00
00
00
00
00
00
00
00
00
70
70
70
70
30
20
20
60
C0
80
ENDCHAR

STARTCHAR less
ENCODING 60
SWIDTH 479 0
DWIDTH 18 0
BBX 15 19 3 4
BITMAP
0002
000E
003E
007E
01F8
07E0
1F80
7E00
F800
E000
F800
7E00
1F80
0FE0
03F8
00FE
003E
000E
0002
ENDCHAR

STARTCHAR equal
ENCODING 61
SWIDTH 479 0
DWIDTH 18 0
BBX 15 11 3 8
BITMAP
FFFE
FFFE
FFFE
0000
0000
0000
0000
0000
FFFE
FFFE
FFFE
ENDCHAR

STARTCHAR greater
ENCODING 62
SWIDTH 479 0
DWIDTH 18 0
BBX 15 19 3 4
BITMAP
8000
C000
F000
FC00
3F00
1FC0
07F0
01FC
007E
001E
003E
00FC
03F0
0FC0
3F00
FC00
F000
C000
8000
ENDCHAR

STARTCHAR question
ENCODING 63
SWIDTH 456 0
DWIDTH 17 0
BBX 14 28 4 0
BITMAP
07C0
0FF0
1FF8
3838
701C
701C
701C
E01C
201C
0038
0078
0070
00E0
01C0
0380
0700
0E00
0E00
1C00
1C00
1C00
0000
0000
0000
3800
3800
3800
3800
ENDCHAR

STARTCHAR at
ENCODING 64
SWIDTH 832 0
DWIDTH 32 0
BBX 29 36 2 -8
BITMAP
000FE000
007FF800
01FFFE00
03F01F00
07C00780
0F0003C0
0E0001C0
1C0000E0
380F00E0
383F9C60
307FD870
7070F830
60E07830
61E07830
E1C07830
E1C03030
C3803030
C3807030
C3807070
C3807070
C3807060
C380E0E0
E380E1C0
E1C1E3C0
E1E3E780
60FF7F00
707E7E00
38383838
38000070
1C000070
1E0000E0
0F8003C0
07E00F80
01FFFF00
007FFC00
000FE000
ENDCHAR

STARTCHAR A
ENCODING 65
SWIDTH 547 0
DWIDTH 21 0
BBX 20 28 -1 0
BITMAP
000780
000F80
000F80
001D80
001D80
001D80
003980
0039C0
0071C0
0071C0
00E1C0
00E1C0
01E1C0
01C1C0
03C0E0
0380E0
0380E0
07FFE0
07FFE0
0FFFE0
0E00E0
1E00E0
1C0070
3C0070
380070
780070
700070
F00070
ENDCHAR

STARTCHAR B
ENCODING 66
SWIDTH 547 0
DWIDTH 21 0
BBX 19 28 2 0
BITMAP
0FFE00
0FFF80
0FFFC0
0E03C0
1C01E0
1C00E0
1C00E0
1C00E0
1C00E0
1C01C0
1803C0
380780
3FFF00
3FFE00
3FFF00
380780
3803C0
7001C0
7001C0
7001C0
7001C0
7001C0
7003C0
E00780
E00F80
FFFF00
FFFE00
FFF800
ENDCHAR

STARTCHAR C
ENCODING 67
SWIDTH 592 0
DWIDTH 22 0
BBX 20 28 3 0
BITMAP
00FE00
01FF80
07FFC0
0F83C0
1F01E0
1E00E0
3C0070
380070
780070
700000
700000
F00000
E00000
E00000
E00000
E00000
E00000
E00000
E000E0
E000E0
F001C0
7001C0
780380
780780
3E1F00
1FFE00
0FFC00
03F000
ENDCHAR

STARTCHAR D
ENCODING 68
SWIDTH 592 0
DWIDTH 22 0
BBX 21 28 1 0
BITMAP
07FF00
07FF80
0FFFC0
0E03E0
0E00F0
0E0070
0E0070
0E0038
1C0038
1C0038
1C0038
1C0038
1C0038
1C0038
380038
380038
380070
380070
380070
3800F0
7000E0
7001E0
7003C0
700780
701F80
7FFF00
FFFC00
FFF000
ENDCHAR

STARTCHAR E
ENCODING 69
SWIDTH 547 0
DWIDTH 21 0
BBX 21 28 1 0
BITMAP
07FFF8
07FFF8
07FFF8
0E0000
0E0000
0E0000
0E0000
0E0000
0E0000
1C0000
1C0000
1C0000
1FFFE0
1FFFE0
1FFFC0
3C0000
380000
380000
380000
380000
380000
780000
700000
700000
700000
7FFFC0
7FFFC0
FFFFC0
ENDCHAR

STARTCHAR F
ENCODING 70
SWIDTH 501 0
DWIDTH 19 0
BBX 20 28 1 0
BITMAP
07FFF0
07FFE0
07FFE0
0E0000
0E0000
0E0000
0E0000
0E0000
0E0000
1C0000
1C0000
1C0000
1FFFC0
1FFF80
1FFF80
380000
380000
380000
380000
380000
380000
700000
700000
700000
700000
700000
700000
E00000
ENDCHAR

STARTCHAR G
ENCODING 71
SWIDTH 638 0
DWIDTH 24 0
BBX 21 28 3 0
BITMAP
007E00
01FF80
03FFC0
0781E0
0F00F0
1E0070
3C0070
380038
380038
700000
700000
700000
E00000
E00000
E03FF0
E03FF0
E03F70
E000E0
E000E0
E000E0
6000E0
7000E0
7000E0
3803C0
3E0FC0
1FFF80
0FFE00
03F800
ENDCHAR

STARTCHAR H
ENCODING 72
SWIDTH 592 0
DWIDTH 22 0
BBX 23 28 1 0
BITMAP
07001E
07001C
07001C
0E001C
0E001C
0E001C
0E001C
0E0038
0E0038
1C0038
1C0038
1C0038
1FFFF0
1FFFF0
1FFFF0
3C0070
380070
380070
380060
3800E0
3800E0
7000E0
7000E0
7000E0
7000C0
7001C0
7001C0
E001C0
ENDCHAR

STARTCHAR I
ENCODING 73
SWIDTH 228 0
DWIDTH 9 0
BBX 7 28 2 0
BITMAP
0E
0E
0E
0E
0E
1C
1C
1C
1C
1C
1C
38
38
38
38
38
38
70
70
70
70
70
70
E0
E0
E0
E0
E0
ENDCHAR

STARTCHAR J
ENCODING 74
SWIDTH 410 0
DWIDTH 16 0
BBX 16 28 1 0
BITMAP
0007
0007
000E
000E
000E
000E
000E
000E
001C
001C
001C
001C
001C
001C
0038
0038
0038
0038
0038
E038
E070
E070
E070
E0F0
F1E0
7FE0
3FC0
1F00
ENDCHAR

STARTCHAR K
ENCODING 75
SWIDTH 547 0
DWIDTH 21 0
BBX 22 28 1 0
BITMAP
07003C
070078
0700F0
0F01E0
0E03C0
0E0780
0E0F00
0E1E00
0E3C00
1E7800
1CF800
1CF000
1DF000
1FF800
1FB800
3F3C00
3E1C00
3C1E00
380E00
380F00
380700
700700
700380
700380
7003C0
7001C0
7001E0
F000E0
ENDCHAR

STARTCHAR L
ENCODING 76
SWIDTH 456 0
DWIDTH 17 0
BBX 15 28 1 0
BITMAP
0700
0700
0700
0E00
0E00
0E00
0E00
0E00
0E00
1C00
1C00
1C00
1C00
1C00
1C00
3800
3800
3800
3800
3800
3800
7000
7000
7000
7000
7FFE
7FFE
FFFE
ENDCHAR

STARTCHAR M
ENCODING 77
SWIDTH 683 0
DWIDTH 26 0
BBX 26 28 1 0
BITMAP
078003C0
078003C0
078007C0
0F8007C0
0F800E80
0E800E80
0EC00D80
0EC01D80
0EC01B80
1DC03B80
1DC03B00
1CC07700
1CC07700
1CC0E700
1CE0E700
38E1C700
38E1C600
38E18E00
38638E00
38630E00
38670E00
70660E00
706E1C00
70761C00
70741C00
707C1C00
60381C00
E0381C00
ENDCHAR

STARTCHAR N
ENCODING 78
SWIDTH 592 0
DWIDTH 22 0
BBX 22 28 2 0
BITMAP
0E001C
0F0018
0F0038
0F0038
0F8038
1D8038
1DC038
1DC070
1DC070
1CE070
18E070
38E070
387070
3870E0
3870E0
3838E0
3038E0
7038E0
701CE0
701CC0
700DC0
700EC0
600EC0
E006C0
E007C0
E00780
E00380
E00380
ENDCHAR

STARTCHAR O
ENCODING 79
SWIDTH 638 0
DWIDTH 24 0
BBX 21 28 3 0
BITMAP
00FE00
01FF80
07FFC0
0F83E0
1F01E0
1C00F0
3C0070
380070
700038
700038
700038
E00038
E00038
E00038
E00038
E00038
E00038
E00070
E00070
E000F0
7000E0
7001E0
7803C0
3C0780
1E0F80
1FFF00
07FC00
01F000
ENDCHAR

STARTCHAR P
ENCODING 80
SWIDTH 547 0
DWIDTH 21 0
BBX 20 28 2 0
BITMAP
0FFF80
0FFFC0
0FFFE0
0E00E0
1C0070
1C0070
1C0070
1C0070
1C0070
1C00F0
3800E0
3801E0
3807C0
3FFFC0
3FFF00
3FFC00
700000
700000
700000
700000
700000
700000
E00000
E00000
E00000
E00000
E00000
E00000
ENDCHAR

STARTCHAR Q
ENCODING 81
SWIDTH 638 0
DWIDTH 24 0
BBX 21 31 3 -3
BITMAP
007E00
01FF80
07FFC0
0F83E0
1F01E0
1C00F0
3C0070
380070
780038
700038
700038
E00038
E00038
E00038
E00038
E00038
E00078
E00070
E00070
E000F0
7030E0
7079E0
783DC0
3C1F80
1E0F80
1FFF00
07FF80
03F3C0
0001E0
0000C0
000040
ENDCHAR

STARTCHAR R
ENCODING 82
SWIDTH 592 0
DWIDTH 22 0
BBX 21 28 2 0
BITMAP
0FFFC0
0FFFE0
0FFFF0
0E0078
1C0038
1C0038
1C0038
1C0038
1C0038
1C0070
3800F0
3801F0
3FFFE0
3FFF80
3FFA00
381C00
700E00
700E00
700700
700700
700380
700380
E003C0
E001C0
E001C0
E001C0
E001E0
E000E0
ENDCHAR

STARTCHAR S
ENCODING 83
SWIDTH 547 0
DWIDTH 21 0
BBX 19 28 2 0
BITMAP
01FC00
03FF00
07FF80
0F07C0
0E01C0
1C01E0
1C00E0
1C00E0
1C0000
1E0000
0F0000
0FC000
07E000
01F800
00FE00
003F00
000F00
000780
200380
E00380
E00380
600380
700380
780700
3C1F00
3FFE00
1FFC00
07F000
ENDCHAR

STARTCHAR T
ENCODING 84
SWIDTH 501 0
DWIDTH 19 0
BBX 18 28 4 0
BITMAP
FFFFC0
FFFFC0
FFFF80
01C000
01C000
01C000
01C000
038000
038000
038000
038000
038000
038000
070000
070000
070000
070000
070000
070000
0E0000
0E0000
0E0000
0E0000
0E0000
0E0000
1C0000
1C0000
1C0000
ENDCHAR

STARTCHAR U
ENCODING 85
SWIDTH 592 0
DWIDTH 22 0
BBX 21 28 3 0
BITMAP
1C0078
1C0070
1C0070
1C0070
380070
380070
3800E0
3800E0
3800E0
3800E0
7000E0
7000E0
7001C0
7001C0
7001C0
7001C0
E001C0
E001C0
E00380
E00380
E00380
E00700
F00700
700F00
7C3E00
3FFC00
1FF800
07E000
ENDCHAR

STARTCHAR V
ENCODING 86
SWIDTH 547 0
DWIDTH 21 0
BBX 20 28 4 0
BITMAP
E000F0
E000E0
E001E0
E001C0
6001C0
700380
700380
700700
700700
700F00
700E00
380E00
381C00
381C00
383800
383800
387000
1C7000
1CF000
1CE000
1CE000
1DC000
1DC000
0D8000
0F8000
0F0000
0F0000
0F0000
ENDCHAR

STARTCHAR W
ENCODING 87
SWIDTH 774 0
DWIDTH 29 0
BBX 29 28 4 0
BITMAP
E0070038
E00F0070
E00F0070
E00F0070
E01F00E0
E01F00E0
E03B01C0
E03B01C0
E07B01C0
E0738380
E0738380
E0E38700
E0E38700
E1C38F00
61C38E00
63C38E00
63839C00
63839C00
7703B800
7703B800
7603B800
7603F000
7603B000
7C03E000
7C03E000
7803E000
7803C000
7003C000
ENDCHAR

STARTCHAR X
ENCODING 88
SWIDTH 547 0
DWIDTH 21 0
BBX 25 28 -1 0
BITMAP
0F000780
07000F00
07801E00
03803C00
03C03C00
01C07800
01E0F000
00E1E000
00F1E000
0073C000
00778000
003F0000
003F0000
001E0000
003C0000
007E0000
007E0000
00F70000
01E70000
03C78000
03C38000
07838000
0F01C000
1E01C000
1E00E000
3C00E000
7800F000
F0007000
ENDCHAR

STARTCHAR Y
ENCODING 89
SWIDTH 547 0
DWIDTH 21 0
BBX 20 28 4 0
BITMAP
E000F0
E000E0
7001E0
7003C0
780380
380780
380F00
1C0F00
1C1E00
1E1C00
0E3C00
0E7800
077000
077000
07E000
03E000
01C000
038000
038000
038000
038000
038000
038000
070000
070000
070000
070000
070000
ENDCHAR

STARTCHAR Z
ENCODING 90
SWIDTH 501 0
DWIDTH 19 0
BBX 19 28 1 0
BITMAP
1FFFE0
1FFFE0
1FFDE0
0003C0
000380
000780
000F00
000E00
001E00
003C00
003800
007800
00F000
00E000
01E000
03C000
038000
078000
0F0000
0E0000
1E0000
3C0000
380000
780000
F00000
FFFF80
FFFF00
FFFF00
ENDCHAR

STARTCHAR bracketleft
ENCODING 91
SWIDTH 228 0
DWIDTH 9 0
BBX 12 35 0 -7
BITMAP
03F0
03F0
03F0
0700
0700
0700
0700
0700
0600
0E00
0E00
0E00
0E00
0C00
0C00
1C00
1C00
1C00
1C00
1800
1800
3800
3800
3800
3800
3000
3000
7000
7000
7000
7000
6000
7E00
FC00
FC00
ENDCHAR

STARTCHAR backslash
ENCODING 92
SWIDTH 228 0
DWIDTH 9 0
BBX 6 28 3 0
BITMAP
C0
C0
C0
C0
C0
E0
60
60
60
60
60
60
70
70
30
30
30
30
30
30
38
18
18
18
18
18
18
1C
ENDCHAR

STARTCHAR bracketright
ENCODING 93
SWIDTH 228 0
DWIDTH 9 0
BBX 12 35 -2 -7
BITMAP
03F0
03F0
03F0
0070
0060
00E0
00E0
00E0
00E0
00E0
00C0
01C0
01C0
01C0
01C0
01C0
0180
0380
0380
0380
0380
0380
0300
0700
0700
0700
0700
0600
0600
0E00
0E00
0E00
7E00
FC00
FC00
ENDCHAR

STARTCHAR asciicircum
ENCODING 94
SWIDTH 385 0
DWIDTH 15 0
BBX 13 15 2 13
BITMAP
0700
0700
0F00
0F80
0D80
1DC0
1DC0
18C0
38E0
38E0
3060
7070
7070
6030
E038
ENDCHAR

STARTCHAR underscore
ENCODING 95
SWIDTH 456 0
DWIDTH 17 0
BBX 19 2 -1 -5
BITMAP
FFFFE0
FFFFE0
ENDCHAR

STARTCHAR quoteleft
ENCODING 96
SWIDTH 182 0
DWIDTH 7 0
BBX 5 10 4 18
BITMAP
08
38
20
60
40
40
70
F0
E0
E0
ENDCHAR

STARTCHAR a
ENCODING 97
SWIDTH 456 0
DWIDTH 17 0
BBX 15 20 1 0
BITMAP
03E0
0FF8
1FFC
1C1E
380E
380E
000E
000E
01FE
1FFC
3F1C
701C
E01C
E01C
E038
E078
F0F8
7FD8
3F98
1E18
ENDCHAR

STARTCHAR b
ENCODING 98
SWIDTH 456 0
DWIDTH 17 0
BBX 16 28 1 0
BITMAP
0700
0600
0E00
0E00
0E00
0E00
0E00
0C00
1CF8
1DFC
1DFE
1F0E
1E0F
1C07
3C07
3807
3807
3807
3007
3007
700E
700E
781E
781C
6C3C
6FF8
E7F0
E3C0
ENDCHAR

STARTCHAR c
ENCODING 99
SWIDTH 410 0
DWIDTH 16 0
BBX 14 20 2 0
BITMAP
03E0
0FF0
1FF8
1C3C
381C
701C
7008
7000
6000
E000
E000
E000
E010
E038
E038
6070
70F0
3FE0
3FC0
0F00
ENDCHAR

STARTCHAR d
ENCODING 100
SWIDTH 456 0
DWIDTH 17 0
BBX 17 28 2 0
BITMAP
000380
000380
000380
000380
000300
000300
000700
000700
03C700
0FE700
1FF600
1C3A00
381E00
781E00
700E00
700E00
600C00
E00C00
E01C00
E01C00
E01C00
E03C00
E03800
707800
78F800
3FD800
3FB800
0E3800
ENDCHAR

STARTCHAR e
ENCODING 101
SWIDTH 456 0
DWIDTH 17 0
BBX 15 20 2 0
BITMAP
01E0
07F0
1FF8
1C1C
380C
700E
700E
600E
7FFE
FFFE
FFFE
E000
E000
E01C
E03C
7038
78F0
3FF0
1FC0
0F00
ENDCHAR

STARTCHAR f
ENCODING 102
SWIDTH 228 0
DWIDTH 9 0
BBX 12 28 1 0
BITMAP
03F0
07E0
07E0
0700
0E00
0E00
0E00
0E00
7FC0
7F80
7F80
1C00
1C00
1C00
1800
3800
3800
3800
3800
3800
3000
7000
7000
7000
7000
7000
6000
E000
ENDCHAR

STARTCHAR g
ENCODING 103
SWIDTH 456 0
DWIDTH 17 0
BBX 17 28 1 -8
BITMAP
01E180
07FB80
0FFB80
0E1D80
1C0F00
3C0700
380700
380700
700700
700700
700600
700600
700E00
700E00
701E00
381E00
3C7C00
1FEC00
0FDC00
071C00
001C00
001800
E03800
E03800
707000
7FF000
3FE000
0F8000
ENDCHAR

STARTCHAR h
ENCODING 104
SWIDTH 456 0
DWIDTH 17 0
BBX 15 28 2 0
BITMAP
0E00
0E00
0E00
0C00
1C00
1C00
1C00
1C00
1CF8
19FC
3BFE
3F0E
3C0E
3C0E
380E
380E
700C
701C
701C
701C
701C
601C
E018
E038
E038
E038
C038
C030
ENDCHAR

STARTCHAR i
ENCODING 105
SWIDTH 182 0
DWIDTH 7 0
BBX 7 28 1 0
BITMAP
06
0E
0E
0E
00
00
00
00
1C
1C
1C
1C
18
38
38
38
38
38
30
70
70
70
70
70
60
E0
E0
E0
ENDCHAR

STARTCHAR j
ENCODING 106
SWIDTH 182 0
DWIDTH 7 0
BBX 12 36 -4 -8
BITMAP
0030
0070
0070
0070
0000
0000
0000
0000
00E0
00E0
00E0
00E0
00C0
01C0
01C0
01C0
01C0
01C0
0180
0380
0380
0380
0380
0300
0300
0700
0700
0700
0700
0600
0E00
0E00
0E00
7C00
FC00
F800
ENDCHAR

STARTCHAR k
ENCODING 107
SWIDTH 410 0
DWIDTH 16 0
BBX 16 28 1 0
BITMAP
0700
0600
0E00
0E00
0E00
0E00
0C00
0C00
1C0F
1C1E
1C1C
1C38
1870
18E0
39C0
3B80
3BC0
3FC0
3EC0
3CE0
78E0
7060
7070
7070
6070
6038
E038
E03C
ENDCHAR

STARTCHAR l
ENCODING 108
SWIDTH 182 0
DWIDTH 7 0
BBX 7 28 1 0
BITMAP
0E
0E
0E
0E
0E
0C
1C
1C
1C
1C
1C
18
38
38
38
38
38
30
70
70
70
70
70
60
E0
E0
E0
E0
ENDCHAR

STARTCHAR m
ENCODING 109
SWIDTH 683 0
DWIDTH 26 0
BBX 24 20 1 0
BITMAP
1C703C
19F8FE
1BBDFF
3E1D87
3C0F07
380E07
381E07
381C07
701C06
701C0E
70180E
70180E
70380E
60380C
E0380C
E0381C
E0301C
E0701C
E0701C
C07018
ENDCHAR

STARTCHAR n
ENCODING 110
SWIDTH 456 0
DWIDTH 17 0
BBX 16 20 1 0
BITMAP
0C3C
0CFE
1DFE
1D87
1E07
1E07
1C07
1C07
3806
380E
380E
380E
380E
300E
700C
701C
701C
701C
601C
E01C
ENDCHAR

STARTCHAR o
ENCODING 111
SWIDTH 456 0
DWIDTH 17 0
BBX 16 20 1 0
BITMAP
01E0
07F8
0FFC
1E1E
380E
3807
7007
7007
6007
E007
E007
E007
E00E
E00E
E01E
703C
7878
3FF0
1FE0
0780
ENDCHAR

STARTCHAR p
ENCODING 112
SWIDTH 456 0
DWIDTH 17 0
BBX 17 27 0 -7
BITMAP
0E3800
0EFE00
0EFF00
0F8700
0F0780
0E0380
1E0380
1C0380
1C0380
1C0380
180380
180380
380700
380700
3C0E00
3C0E00
361C00
37FC00
73F800
71E000
700000
700000
600000
E00000
E00000
E00000
E00000
ENDCHAR

STARTCHAR q
ENCODING 113
SWIDTH 456 0
DWIDTH 17 0
BBX 16 27 2 -7
BITMAP
03C7
0FE7
1FF6
3C36
381E
781E
700E
700C
E00C
E00C
E01C
E01C
E01C
E038
E038
7078
78F8
3FD8
3FB8
0E30
0070
0070
0070
0070
0070
0060
00E0
ENDCHAR

STARTCHAR r
ENCODING 114
SWIDTH 273 0
DWIDTH 10 0
BBX 12 20 1 0
BITMAP
1CF0
1DF0
1BE0
1B20
1E00
3C00
3C00
3800
3800
3800
3000
7000
7000
7000
7000
6000
6000
E000
E000
E000
ENDCHAR

STARTCHAR s
ENCODING 115
SWIDTH 410 0
DWIDTH 16 0
BBX 14 20 1 0
BITMAP
03C0
0FF0
1FF8
1C3C
381C
381C
3800
1E00
1F80
0FC0
03F0
00F0
0078
E038
E038
E038
7070
7FF0
3FE0
0F80
ENDCHAR

STARTCHAR t
ENCODING 116
SWIDTH 228 0
DWIDTH 9 0
BBX 8 27 2 0
BITMAP
02
06
0C
0C
1C
1C
1C
7F
FF
FF
38
38
38
38
30
70
70
70
70
60
60
E0
E0
E0
FC
7C
38
ENDCHAR

STARTCHAR u
ENCODING 117
SWIDTH 456 0
DWIDTH 17 0
BBX 16 20 2 0
BITMAP
3807
3806
380E
380E
380E
300E
700C
701C
701C
701C
601C
601C
E038
E038
E078
E078
E1D8
7FB8
7F30
1C30
ENDCHAR

STARTCHAR v
ENCODING 118
SWIDTH 410 0
DWIDTH 16 0
BBX 14 20 3 0
BITMAP
C01C
C01C
E038
E038
E070
E070
E060
E0E0
60C0
61C0
71C0
7380
7380
7700
7700
3600
3600
3C00
3C00
3800
ENDCHAR

STARTCHAR w
ENCODING 119
SWIDTH 592 0
DWIDTH 22 0
BBX 21 20 3 0
BITMAP
C07038
C0F038
C0F030
C0F070
E1D070
E1B0E0
E1B0E0
E3B0C0
E331C0
E731C0
E73B80
E63B80
6E3B00
6C3B00
6C3B00
6C3A00
783E00
783C00
783C00
703C00
ENDCHAR

STARTCHAR x
ENCODING 120
SWIDTH 410 0
DWIDTH 16 0
BBX 17 20 0 0
BITMAP
1C0780
0E0700
0E0E00
0E1C00
071C00
073800
03B000
03F000
03E000
01C000
01C000
03E000
07E000
0F6000
0E7000
1C7000
3C3800
383800
703C00
F01C00
ENDCHAR

STARTCHAR y
ENCODING 121
SWIDTH 410 0
DWIDTH 16 0
BBX 18 28 0 -8
BITMAP
1C03C0
1C0380
1C0700
1C0700
1C0700
0C0E00
0C0E00
0C1C00
0E1C00
0E3800
0E3800
0E7000
067000
066000
06E000
06C000
07C000
07C000
078000
038000
070000
070000
0E0000
0E0000
1C0000
FC0000
F80000
F00000
ENDCHAR

STARTCHAR z
ENCODING 122
SWIDTH 410 0
DWIDTH 16 0
BBX 15 20 1 0
BITMAP
3FFE
3FFE
3FDC
003C
0078
0070
00F0
01E0
03C0
0380
0780
0F00
1E00
1C00
3C00
7800
6000
FFF8
FFF8
FFF8
ENDCHAR

STARTCHAR braceleft
ENCODING 123
SWIDTH 274 0
DWIDTH 10 0
BBX 12 36 2 -8
BITMAP
0070
01F0
01F0
0380
0300
0300
0700
0700
0700
0600
0600
0E00
0E00
0C00
1C00
1800
F800
E000
E000
F000
3800
3800
3800
3800
3800
3800
3000
3000
3000
7000
7000
7000
7000
7E00
3C00
1C00
ENDCHAR

STARTCHAR bar
ENCODING 124
SWIDTH 213 0
DWIDTH 8 0
BBX 2 36 4 -8
BITMAP
C0
C0
C0
C0
C0
C0
C0
C0
C0
C0
C0
C0
C0
C0
C0
C0
C0
C0
C0
C0
C0
C0
C0
C0
C0
C0
C0
C0
C0
C0
C0
C0
C0
C0
C0
C0
ENDCHAR

STARTCHAR braceright
ENCODING 125
SWIDTH 274 0
DWIDTH 10 0
BBX 12 36 -2 -8
BITMAP
0380
03C0
03E0
00E0
00E0
00E0
00E0
00C0
00C0
00C0
00C0
01C0
01C0
01C0
01C0
01C0
00F0
0070
00F0
01F0
0180
0380
0300
0700
0700
0700
0600
0600
0E00
0E00
0E00
0C00
1C00
F800
F800
E000
ENDCHAR

STARTCHAR asciitilde
ENCODING 126
SWIDTH 479 0
DWIDTH 18 0
BBX 15 6 3 11
BITMAP
3C02
FF02
FFCE
FFFE
83FE
80F8
ENDCHAR

STARTCHAR space
ENCODING 160
SWIDTH 228 0
DWIDTH 10 0
BBX 0 0 0 0
BITMAP
ENDCHAR

STARTCHAR Aogonek
ENCODING 161
SWIDTH 547 0
DWIDTH 21 0
BBX 22 36 -1 -8
BITMAP
000F00
000F00
000F80
001D80
001D80
003B80
003B80
007380
007380
00F180
00E1C0
01E1C0
01C1C0
01C1C0
0381C0
0381C0
0701C0
07FFE0
0FFFE0
0FFFE0
1E00E0
1C00E0
3C00E0
3800E0
3800E0
700070
700070
E00070
000060
0000C0
0000C0
0000C0
0000C0
0000E4
0000FC
000078
ENDCHAR

STARTCHAR afii240
ENCODING 162
SWIDTH 500 0
DWIDTH 19 0
BBX 20 20 1 0
BITMAP
0F01F0
0E03E0
0E0780
0E0F00
1E1E00
1E3C00
1C7800
1CF000
1DF000
3FF000
3F7800
3E3800
3C3C00
381C00
781E00
781E00
700E00
700F00
700F00
F00780
ENDCHAR

STARTCHAR Rcommaaccent
ENCODING 163
SWIDTH 592 0
DWIDTH 22 0
BBX 21 36 2 -8
BITMAP
0FFFC0
0FFFE0
0FFFF0
0E0070
1C0038
1C0038
1C0038
1C0038
1C0038
1C0078
3800F0
3801E0
3FFFE0
3FFF80
3FFA00
381C00
300E00
700E00
700700
700700
700380
700380
7003C0
E001C0
E001C0
E001C0
E001E0
E000E0
000000
000000
018000
038000
038000
018000
030000
060000
ENDCHAR

STARTCHAR currency
ENCODING 164
SWIDTH 456 0
DWIDTH 17 0
BBX 15 18 3 4
BITMAP
400C
E7CE
FFFC
7FFC
3C78
7038
701C
601C
601C
601C
601C
7018
7038
3C78
7FFC
FFFE
E7CC
400C
ENDCHAR

STARTCHAR Itilde
ENCODING 165
SWIDTH 228 0
DWIDTH 9 0
BBX 12 35 2 0
BITMAP
1C00
3F70
3FE0
63E0
00C0
0000
0000
0E00
0E00
0E00
0E00
0E00
1C00
1C00
1C00
1C00
1C00
1C00
3800
3800
3800
3800
3800
3800
7000
7000
7000
7000
7000
7000
E000
E000
E000
E000
E000
ENDCHAR

STARTCHAR Lcommaaccent
ENCODING 166
SWIDTH 456 0
DWIDTH 17 0
BBX 15 36 1 -8
BITMAP
0700
0700
0700
0E00
0E00
0E00
0E00
0E00
0E00
1C00
1C00
1C00
1C00
1C00
1C00
3800
3800
3800
3800
3800
3800
7000
7000
7000
7000
7FFE
7FFE
FFFE
0000
0000
0300
0300
0700
0300
0200
0C00
ENDCHAR

STARTCHAR section
ENCODING 167
SWIDTH 456 0
DWIDTH 17 0
BBX 17 36 1 -8
BITMAP
007800
01FE00
03FE00
038F00
070700
070300
070380
070000
070000
038000
03C000
0FE000
1CF000
187800
383C00
303C00
301E00
380F00
380700
3C0700
1E0700
0F0600
078E00
03DC00
01F800
00E000
007000
007000
003800
E03800
603800
703800
783800
3CF000
1FE000
0FC000
ENDCHAR

STARTCHAR hungarumlaut
ENCODING 168
SWIDTH 273 0
DWIDTH 10 0
BBX 11 5 3 23
BITMAP
3DE0
39C0
7380
6300
C600
ENDCHAR

STARTCHAR Scaron
ENCODING 169
SWIDTH 547 0
DWIDTH 21 0
BBX 19 35 2 0
BITMAP
00E380
006700
006E00
007600
003C00
000000
000000
00F800
03FF00
07FF80
0F0780
0E03C0
1C01C0
1C01C0
1C00E0
1C0000
1E0000
0F0000
0FC000
07E000
03F800
00FE00
003F00
000F00
000780
200380
E00380
E00380
600380
700380
780700
3C1F00
3FFE00
1FFC00
07F000
ENDCHAR

STARTCHAR Emacron
ENCODING 170
SWIDTH 547 0
DWIDTH 21 0
BBX 21 33 1 0
BITMAP
007FE0
007FC0
007FC0
000000
000000
07FFF8
07FFF8
07FFF8
0E0000
0E0000
0E0000
0E0000
0E0000
0E0000
1C0000
1C0000
1C0000
1FFFE0
1FFFE0
1FFFC0
3C0000
380000
380000
380000
380000
380000
780000
700000
700000
700000
7FFFC0
7FFFC0
FFFFC0
ENDCHAR

STARTCHAR Gcommaaccent
ENCODING 171
SWIDTH 638 0
DWIDTH 24 0
BBX 21 36 3 -8
BITMAP
007E00
01FF80
03FFC0
0781E0
0F00F0
1E0070
3C0070
380038
780038
700000
700000
700000
E00000
E00000
E03FF0
E03FF0
E03F70
E000E0
E000E0
E000E0
F000E0
7000E0
7000E0
7803C0
3E0FC0
1FFF80
0FFE00
03F800
000000
000000
00E000
00C000
004000
00C000
018000
010000
ENDCHAR

STARTCHAR afii237
ENCODING 172
SWIDTH 614 0
DWIDTH 23 0
BBX 23 28 4 0
BITMAP
7FFFFE
7FFFFC
7FFFFC
003800
007800
007800
007800
007000
007000
00F000
00F000
00F000
00E000
7FFFC0
7FFFC0
FFFF80
01E000
01C000
01C000
03C000
03C000
03C000
038000
078000
078000
078000
078000
070000
ENDCHAR

STARTCHAR hyphen
ENCODING 173
SWIDTH 273 0
DWIDTH 10 0
BBX 9 3 1 8
BITMAP
7F80
7F80
FF80
ENDCHAR

STARTCHAR Zcaron
ENCODING 174
SWIDTH 501 0
DWIDTH 19 0
BBX 19 35 1 0
BITMAP
00E380
006700
006E00
007C00
003800
000000
000000
1FFFE0
1FFFE0
1FFDE0
0003C0
000380
000780
000F00
000E00
001E00
003C00
003800
007800
00F000
00E000
01E000
03C000
038000
078000
0F0000
0E0000
1E0000
3C0000
380000
780000
F00000
FFFF80
FFFF00
FFFF00
ENDCHAR

STARTCHAR macron
ENCODING 175
SWIDTH 273 0
DWIDTH 10 0
BBX 10 3 3 23
BITMAP
FFC0
FFC0
FFC0
ENDCHAR

STARTCHAR degree
ENCODING 176
SWIDTH 328 0
DWIDTH 12 0
BBX 9 10 5 18
BITMAP
1C00
7F00
6300
C180
C180
C180
C180
6300
7F00
1C00
ENDCHAR

STARTCHAR aogonek
ENCODING 177
SWIDTH 456 0
DWIDTH 17 0
BBX 16 29 1 -8
BITMAP
01E0
07F8
0FFC
1E1E
380E
380E
080E
000E
003E
1FFC
3FEC
7C1C
701C
E01C
E01C
E038
E078
70F8
7FD8
3F98
1E18
0010
0030
0030
0030
0030
003B
003F
001E
ENDCHAR

STARTCHAR ogonek
ENCODING 178
SWIDTH 273 0
DWIDTH 10 0
BBX 6 9 2 -8
BITMAP
60
40
C0
C0
C0
C0
EC
FC
78
ENDCHAR

STARTCHAR rcommaaccent
ENCODING 179
SWIDTH 273 0
DWIDTH 10 0
BBX 12 28 1 -8
BITMAP
1CF0
1DF0
1BE0
1B20
1E00
3C00
3C00
3800
3800
3800
3000
7000
7000
7000
7000
6000
6000
E000
E000
E000
0000
0000
6000
6000
A000
6000
4000
8000
ENDCHAR

STARTCHAR acute
ENCODING 180
SWIDTH 273 0
DWIDTH 10 0
BBX 7 5 5 23
BITMAP
1E
38
38
70
E0
ENDCHAR

STARTCHAR itilde
ENCODING 181
SWIDTH 182 0
DWIDTH 7 0
BBX 11 27 1 0
BITMAP
38E0
7FC0
7FC0
C380
0000
0000
0000
1C00
1C00
1C00
1C00
1800
3800
3800
3800
3800
3800
3000
7000
7000
7000
7000
7000
6000
E000
E000
E000
ENDCHAR

STARTCHAR lcommaaccent
ENCODING 182
SWIDTH 182 0
DWIDTH 7 0
BBX 9 36 -1 -8
BITMAP
0380
0380
0380
0380
0380
0300
0700
0700
0700
0700
0700
0600
0E00
0E00
0E00
0E00
0E00
0C00
1C00
1C00
1C00
1C00
1C00
1800
3800
3800
3800
3800
0000
0000
3000
3000
5000
3000
2000
C000
ENDCHAR

STARTCHAR caron
ENCODING 183
SWIDTH 273 0
DWIDTH 10 0
BBX 9 5 4 23
BITMAP
E380
6700
6E00
7C00
3C00
ENDCHAR

STARTCHAR commaaccent
ENCODING 184
SWIDTH 333 0
DWIDTH 13 0
BBX 4 6 4 -8
BITMAP
70
70
60
20
60
C0
ENDCHAR

STARTCHAR scaron
ENCODING 185
SWIDTH 410 0
DWIDTH 16 0
BBX 15 28 1 0
BITMAP
030E
039C
01B8
01B0
01F0
00E0
0000
0000
07C0
0FF0
1FF8
1C38
381C
381C
3800
1E00
1F80
0FC0
03F0
00F0
0078
E038
E038
E038
7070
7FF0
3FE0
0F80
ENDCHAR

STARTCHAR emacron
ENCODING 186
SWIDTH 456 0
DWIDTH 17 0
BBX 15 26 2 0
BITMAP
03FE
03FE
07FE
0000
0000
0000
03E0
0FF8
1FF8
1C1C
380C
700E
700E
600E
FFFE
FFFE
FFFE
E000
E000
E01C
E038
7038
7870
3FE0
1FC0
0F00
ENDCHAR

STARTCHAR gcommaaccent
ENCODING 187
SWIDTH 456 0
DWIDTH 17 0
BBX 17 36 1 -8
BITMAP
000800
001800
003000
003000
003000
007000
000000
000000
01E380
07FB80
0FFB00
0E1D00
1C0F00
3C0700
380700
380700
300600
700600
700600
700600
700E00
700E00
701C00
381C00
383C00
1FEC00
1FDC00
079C00
001800
003800
E03800
E07800
F0F000
7FE000
3FC000
0F8000
ENDCHAR

STARTCHAR afii253
ENCODING 188
SWIDTH 280 0
DWIDTH 11 0
BBX 11 27 1 0
BITMAP
0040
0180
0380
0780
0780
0700
0700
3FE0
3FE0
7FE0
0E00
0E00
0E00
1E00
1C00
FFC0
FFC0
FFC0
3C00
3800
3800
3800
7800
7800
7F00
3F00
1F00
ENDCHAR

STARTCHAR afii238
ENCODING 189
SWIDTH 723 0
DWIDTH 27 0
BBX 25 28 2 0
BITMAP
078FE000
079FF800
077FFC00
0F783E00
0FE01F00
0FC00F00
0F800700
0F000780
1F000780
1E000780
1E000780
1E000780
1C000780
3C000780
3C000780
3C000700
38000F00
38000F00
78000F00
78001E00
78001E00
70001E00
70003C00
F0007C00
F020F800
F03FF000
E07FE000
E01F8000
ENDCHAR

STARTCHAR zcaron
ENCODING 190
SWIDTH 410 0
DWIDTH 16 0
BBX 15 28 1 0
BITMAP
038E
019C
01B8
01D8
00F0
0000
0000
0000
3FFE
3FFE
3FDC
003C
0078
0070
00F0
01E0
03C0
0380
0780
0F00
0E00
1C00
3C00
7800
7000
FFF8
FFF8
FFF8
ENDCHAR

STARTCHAR afii254
ENCODING 191
SWIDTH 556 0
DWIDTH 21 0
BBX 19 28 1 -8
BITMAP
0F0F00
0E3FC0
0EFFE0
0EC1E0
0F80E0
1F00E0
1E00E0
1E01E0
1C01E0
3C01C0
3C01C0
3C01C0
3803C0
3803C0
780380
780380
700380
700780
700780
F00700
000700
000700
000F00
000E00
001E00
00FE00
01FC00
01F800
ENDCHAR

STARTCHAR Amacron
ENCODING 192
SWIDTH 547 0
DWIDTH 21 0
BBX 20 33 -1 0
BITMAP
003FF0
003FF0
003FE0
000000
000000
000780
000F80
000F80
000F80
001D80
001D80
003980
0039C0
0071C0
0071C0
00E1C0
00E1C0
01E1C0
01C1C0
03C0E0
0380E0
0380E0
07FFE0
07FFE0
0FFFE0
0E00E0
1E00E0
1C0070
3C0070
380070
780070
700070
F00070
ENDCHAR

STARTCHAR Aacute
ENCODING 193
SWIDTH 547 0
DWIDTH 21 0
BBX 20 35 -1 0
BITMAP
0001E0
000380
000380
000700
000E00
000000
000000
000780
000F80
000F80
001F80
001D80
001D80
003980
0039C0
0071C0
0071C0
00E1C0
00E1C0
01E1C0
01C1C0
03C0E0
0380E0
0380E0
07FFE0
07FFE0
0FFFE0
0E00E0
1E00E0
1C0070
3C0070
380070
780070
700070
F00070
ENDCHAR

STARTCHAR Acircumflex
ENCODING 194
SWIDTH 547 0
DWIDTH 21 0
BBX 20 35 -1 0
BITMAP
000380
0007C0
000EC0
001CC0
0038E0
000000
000000
000780
000F80
000F80
001F80
001D80
001D80
003980
0039C0
0071C0
0071C0
00E1C0
00E1C0
01E1C0
01C1C0
03C0E0
0380E0
0380E0
07FFE0
07FFE0
0FFFE0
0E00E0
1E00E0
1C0070
3C0070
380070
780070
700070
F00070
ENDCHAR

STARTCHAR Atilde
ENCODING 195
SWIDTH 547 0
DWIDTH 21 0
BBX 20 35 -1 0
BITMAP
000C00
001F30
003FF0
0033E0
0000C0
000000
000000
000780
000F80
000F80
001F80
001D80
001D80
003980
0039C0
0071C0
0071C0
00E1C0
00E1C0
01E1C0
01C1C0
03C0E0
0380E0
0380E0
07FFE0
07FFE0
0FFFE0
0E00E0
1E00E0
1C0070
3C0070
380070
780070
700070
F00070
ENDCHAR

STARTCHAR Adieresis
ENCODING 196
SWIDTH 547 0
DWIDTH 21 0
BBX 20 34 -1 0
BITMAP
001C70
001C60
001CE0
0018E0
000000
000000
000780
000F80
000F80
000F80
001D80
001D80
003980
0039C0
0071C0
0071C0
00E1C0
00E1C0
01E1C0
01C1C0
03C0E0
0380E0
0380E0
07FFE0
07FFE0
0FFFE0
0E00E0
1E00E0
1C0070
3C0070
380070
780070
700070
F00070
ENDCHAR

STARTCHAR Aring
ENCODING 197
SWIDTH 547 0
DWIDTH 21 0
BBX 20 35 -1 0
BITMAP
000700
000D80
000880
000880
000D80
000700
000000
000700
000F00
000F80
001D80
001D80
001D80
003B80
003980
007180
007180
00E1C0
00E1C0
01E1C0
01C1C0
03C1C0
0381C0
0380C0
07FFE0
07FFE0
0FFFE0
0E00E0
1E00E0
1C00E0
3C00E0
380060
780070
700070
F00070
ENDCHAR

STARTCHAR AE
ENCODING 198
SWIDTH 820 0
DWIDTH 31 0
BBX 34 28 -1 0
BITMAP
0007FFFFC0
0007FFFF80
000FFFFF80
000E380000
001C380000
001C380000
003C380000
0038380000
0078780000
0070700000
00F0700000
00E0700000
01E07FFF00
01C07FFE00
03C0FFFE00
0380E00000
0780E00000
07FFE00000
0FFFE00000
0FFEE00000
1E01E00000
1C01C00000
3C01C00000
3801C00000
7801C00000
7001FFFE00
F003FFFC00
E003FFFC00
ENDCHAR

STARTCHAR Iogonek
ENCODING 199
SWIDTH 228 0
DWIDTH 9 0
BBX 9 36 1 -8
BITMAP
0380
0700
0700
0700
0700
0700
0700
0E00
0E00
0E00
0E00
0E00
0E00
1C00
1C00
1C00
1C00
1C00
1C00
3800
3800
3800
3800
3800
7800
7000
7000
7000
4000
C000
C000
C000
C000
E400
FC00
7800
ENDCHAR

STARTCHAR Ccaron
ENCODING 200
SWIDTH 592 0
DWIDTH 22 0
BBX 20 35 3 0
BITMAP
0061C0
007380
003700
003E00
003C00
000000
000000
007E00
01FF00
07FFC0
0F83C0
1F01E0
1E00E0
3C0070
380070
780070
700000
700000
700000
E00000
E00000
E00000
E00000
E00000
E00000
E000E0
E000E0
F001C0
7001C0
700380
780780
3E1F00
1FFE00
0FFC00
03F000
ENDCHAR

STARTCHAR Eacute
ENCODING 201
SWIDTH 547 0
DWIDTH 21 0
BBX 21 35 1 0
BITMAP
000780
000700
000E00
000C00
001800
000000
000000
07FFF8
07FFF8
07FFF8
0E0000
0E0000
0E0000
0E0000
0E0000
0E0000
1C0000
1C0000
1C0000
1FFFE0
1FFFE0
1FFFC0
3C0000
380000
380000
380000
380000
380000
780000
700000
700000
700000
7FFFC0
7FFFC0
FFFFC0
ENDCHAR

STARTCHAR Eogonek
ENCODING 202
SWIDTH 547 0
DWIDTH 21 0
BBX 20 36 2 -8
BITMAP
0FFFF0
0FFFF0
0FFFF0
0E0000
1C0000
1C0000
1C0000
1C0000
1C0000
1C0000
380000
380000
3FFFC0
3FFFC0
3FFFC0
380000
700000
700000
700000
700000
700000
700000
F00000
E00000
E00000
FFFF80
FFFF80
FFFF80
001800
001000
003000
003000
003000
003900
003F00
001E00
ENDCHAR

STARTCHAR Edieresis
ENCODING 203
SWIDTH 547 0
DWIDTH 21 0
BBX 21 34 1 0
BITMAP
0039C0
0039C0
0071C0
0071C0
000000
000000
07FFF8
07FFF8
07FFF8
0E0000
0E0000
0E0000
0E0000
0E0000
0E0000
1C0000
1C0000
1C0000
1FFFE0
1FFFE0
1FFFC0
3C0000
380000
380000
380000
380000
380000
780000
700000
700000
700000
7FFFC0
7FFFC0
FFFFC0
ENDCHAR

STARTCHAR Edotaccent
ENCODING 204
SWIDTH 547 0
DWIDTH 21 0
BBX 21 34 1 0
BITMAP
000F00
000E00
000E00
000E00
000000
000000
07FFF8
07FFF8
07FFF8
0E0000
0E0000
0E0000
0E0000
0E0000
0E0000
1C0000
1C0000
1C0000
1FFFE0
1FFFE0
1FFFC0
3C0000
380000
380000
380000
380000
380000
780000
700000
700000
700000
7FFFC0
7FFFC0
FFFFC0
ENDCHAR

STARTCHAR Iacute
ENCODING 205
SWIDTH 228 0
DWIDTH 9 0
BBX 10 35 2 0
BITMAP
03C0
0380
0700
0E00
0C00
0000
0000
0E00
0E00
0E00
0E00
0E00
1C00
1C00
1C00
1C00
1C00
1C00
3800
3800
3800
3800
3800
3800
7000
7000
7000
7000
7000
7000
E000
E000
E000
E000
E000
ENDCHAR

STARTCHAR Icircumflex
ENCODING 206
SWIDTH 228 0
DWIDTH 9 0
BBX 10 35 2 0
BITMAP
0780
0F80
1DC0
19C0
78C0
0000
0000
0E00
0E00
0E00
0E00
0E00
1C00
1C00
1C00
1C00
1C00
1C00
3800
3800
3800
3800
3800
3800
7000
7000
7000
7000
7000
7000
E000
E000
E000
E000
E000
ENDCHAR

STARTCHAR Imacron
ENCODING 207
SWIDTH 228 0
DWIDTH 9 0
BBX 11 33 2 0
BITMAP
3FE0
3FE0
7FE0
0000
0000
0E00
0E00
0E00
0E00
0E00
1C00
1C00
1C00
1C00
1C00
1C00
3800
3800
3800
3800
3800
3800
7000
7000
7000
7000
7000
7000
E000
E000
E000
E000
E000
ENDCHAR

STARTCHAR Eth
ENCODING 208
SWIDTH 592 0
DWIDTH 22 0
BBX 21 28 1 0
BITMAP
07FF00
07FF80
07FFC0
0E03E0
0E00F0
0E0070
0E0070
0E0078
0E0038
1C0038
1C0038
1C0038
1C0038
FFF038
FFF038
FFF038
380078
380070
380070
3800F0
7800E0
7001E0
7003C0
7007C0
701F80
7FFF00
FFFC00
FFF000
ENDCHAR

STARTCHAR Ncommaaccent
ENCODING 209
SWIDTH 592 0
DWIDTH 22 0
BBX 22 36 2 -8
BITMAP
0E001C
0F0018
0F0038
0F0038
0F8038
1D8038
1DC038
1DC070
1DC070
1CE070
18E070
38E070
387070
3870E0
3870E0
3838E0
3038E0
7038E0
701CE0
701CC0
700DC0
700EC0
600EC0
E006C0
E007C0
E00780
E00380
E00380
000000
000000
018000
038000
038000
010000
030000
060000
ENDCHAR

STARTCHAR Omacron
ENCODING 210
SWIDTH 638 0
DWIDTH 24 0
BBX 21 33 3 0
BITMAP
007FC0
007FC0
00FFC0
000000
000000
00FE00
01FF00
07FFC0
0F83E0
1F01E0
1C00F0
3C0070
380070
780038
700038
700038
700038
E00038
E00038
E00038
E00038
E00038
E00070
E00070
E000F0
7000E0
7001E0
7803C0
3C03C0
3E0F80
1FFF00
0FFC00
03F800
ENDCHAR

STARTCHAR Kcommaaccent
ENCODING 211
SWIDTH 547 0
DWIDTH 21 0
BBX 22 36 1 -8
BITMAP
07003C
070078
0700F0
0F01E0
0E03C0
0E0780
0E0F00
0E1E00
0E3C00
1E7800
1CF800
1CF000
1DF000
1FF800
1FB800
3F3C00
3E1C00
3C1E00
380E00
380F00
380700
700700
700380
700380
7003C0
7001C0
7001E0
F000E0
000000
000000
018000
018000
038000
018000
030000
060000
ENDCHAR

STARTCHAR Ocircumflex
ENCODING 212
SWIDTH 638 0
DWIDTH 24 0
BBX 21 35 3 0
BITMAP
000F00
000F00
001B00
003B80
00F180
000000
000000
00FE00
01FF00
07FFC0
0F83E0
1F01E0
1C00F0
3C0070
380070
780038
700038
700038
700038
E00038
E00038
E00038
E00038
E00038
E00070
E00070
E000F0
7000E0
7001E0
7803C0
3C03C0
3E0F80
1FFF00
0FFC00
03F800
ENDCHAR

STARTCHAR Otilde
ENCODING 213
SWIDTH 638 0
DWIDTH 24 0
BBX 21 35 3 0
BITMAP
003800
007CC0
007FC0
0067C0
00C380
000000
000000
00FE00
01FF00
07FFC0
0F83E0
1F01E0
1C00F0
3C0070
380070
780038
700038
700038
700038
E00038
E00038
E00038
E00038
E00038
E00070
E00070
E000F0
7000E0
7001E0
7803C0
3C03C0
3E0F80
1FFF00
0FFC00
03F800
ENDCHAR

STARTCHAR Odieresis
ENCODING 214
SWIDTH 638 0
DWIDTH 24 0
BBX 21 34 3 0
BITMAP
0071C0
0071C0
0071C0
007180
000000
000000
007C00
01FF00
07FFC0
0F83E0
1F01E0
1C00F0
3C0070
380070
780038
700038
700038
700038
E00038
E00038
E00038
E00038
E00038
E00070
E00070
E000F0
7000E0
7001E0
7803C0
3C03C0
3E0F80
1FFF00
0FFC00
03F800
ENDCHAR

STARTCHAR multiply
ENCODING 215
SWIDTH 479 0
DWIDTH 18 0
BBX 13 17 4 5
BITMAP
4010
4030
E078
F070
78E0
3DE0
1FC0
0F80
0F00
0F80
1FC0
3DE0
78E0
F0F0
E078
4030
4010
ENDCHAR

STARTCHAR Oslash
ENCODING 216
SWIDTH 638 0
DWIDTH 24 0
BBX 21 30 3 -1
BITMAP
000018
00FE38
03FFB0
07FFE0
0F83E0
1F00E0
1C01F0
3C03B0
380370
780638
700E38
700C38
E01838
E03838
E03038
E06038
E0E038
E0C038
E18070
E38070
E300F0
7600E0
7601E0
7803C0
3C0780
3E0F80
3FFF00
67FC00
E1F000
C00000
ENDCHAR

STARTCHAR Uogonek
ENCODING 217
SWIDTH 592 0
DWIDTH 22 0
BBX 21 36 3 -8
BITMAP
1E0038
1C0038
1C0070
1C0070
1C0070
3C0070
380070
380070
3800E0
3800E0
7800E0
7800E0
7000E0
7000E0
7001C0
7001C0
F001C0
E001C0
E001C0
E00380
E00380
E00780
F00700
780F00
7C3E00
3FFC00
1FF800
07F000
020000
060000
060000
060000
060000
076000
07E000
03C000
ENDCHAR

STARTCHAR Uacute
ENCODING 218
SWIDTH 592 0
DWIDTH 22 0
BBX 21 35 3 0
BITMAP
000780
000E00
000E00
001C00
003800
000000
000000
1C0078
1C0070
1C0070
1C0070
380070
380070
3800E0
3800E0
3800E0
3800E0
7000E0
7000E0
7001C0
7001C0
7001C0
7001C0
E001C0
E003C0
E00380
E00380
E00780
E00700
F00F00
781E00
7C3E00
3FFC00
1FF800
07E000
ENDCHAR

STARTCHAR Ucircumflex
ENCODING 219
SWIDTH 592 0
DWIDTH 22 0
BBX 21 35 3 0
BITMAP
000E00
001F00
003B00
007380
00E180
000000
000000
1C0078
1C0070
1C0070
1C0070
380070
380070
3800E0
3800E0
3800E0
3800E0
7000E0
7000E0
7001C0
7001C0
7001C0
7001C0
E001C0
E003C0
E00380
E00380
E00780
E00700
F00F00
781E00
7C3E00
3FFC00
1FF800
07E000
ENDCHAR

STARTCHAR Udieresis
ENCODING 220
SWIDTH 592 0
DWIDTH 22 0
BBX 21 35 3 0
BITMAP
0071C0
0071C0
007180
007380
000000
000000
000000
1C0078
1C0070
1C0070
1C0070
380070
380070
3800E0
3800E0
3800E0
3800E0
7000E0
7000E0
7001C0
7001C0
7001C0
7001C0
E001C0
E003C0
E00380
E00380
E00780
E00700
F00F00
781E00
7C3E00
3FFC00
1FF800
07E000
ENDCHAR

STARTCHAR Utilde
ENCODING 221
SWIDTH 592 0
DWIDTH 22 0
BBX 21 35 3 0
BITMAP
007000
00FCC0
00FF80
01CF80
000300
000000
000000
1C0078
1C0070
1C0070
1C0070
380070
380070
3800E0
3800E0
3800E0
3800E0
7000E0
7000E0
7001C0
7001C0
7001C0
7001C0
E001C0
E001C0
E00380
E00380
E00380
E00700
F00700
700F00
7C3E00
3FFC00
1FF800
07E000
ENDCHAR

STARTCHAR Umacron
ENCODING 222
SWIDTH 592 0
DWIDTH 22 0
BBX 21 33 3 0
BITMAP
007FC0
00FFC0
00FFC0
000000
000000
1C0038
1C0070
1C0070
1C0070
380070
380070
3800E0
3800E0
3800E0
3800E0
7000E0
7000E0
7001C0
7001C0
7001C0
7001C0
E001C0
E003C0
E00380
E00380
E00780
E00700
F00F00
781E00
7C3E00
3FFC00
1FF800
07E000
ENDCHAR

STARTCHAR germandbls
ENCODING 223
SWIDTH 501 0
DWIDTH 19 0
BBX 17 28 1 0
BITMAP
007800
01FE00
07FF00
070700
0E0700
0E0700
1C0700
1C0E00
1C1E00
1C1C00
183800
183800
387000
387000
387000
387800
303C00
701E00
700F00
700700
700380
700380
620380
E70700
E78F00
E3FE00
E1FC00
E0F000
ENDCHAR

STARTCHAR amacron
ENCODING 224
SWIDTH 456 0
DWIDTH 17 0
BBX 15 26 1 0
BITMAP
03FE
03FE
07FE
0000
0000
0000
03F0
0FF8
1FFC
1C1E
380E
380E
000E
000E
03FE
1FFC
3F1C
701C
E01C
E01C
E038
E078
F0F8
7FD8
3F98
1E18
ENDCHAR

STARTCHAR aacute
ENCODING 225
SWIDTH 456 0
DWIDTH 17 0
BBX 15 28 1 0
BITMAP
003C
0038
0070
0060
00E0
00C0
0000
0000
03F0
0FF8
1FFC
1C1E
380E
380E
000E
000E
03FE
1FFC
3F1C
701C
E01C
E01C
E038
E078
F0F8
7FD8
3F98
1E18
ENDCHAR

STARTCHAR acircumflex
ENCODING 226
SWIDTH 456 0
DWIDTH 17 0
BBX 15 28 1 0
BITMAP
0078
00F8
00D8
01D8
039C
070C
0000
0000
03F0
0FF8
1FFC
1C1E
380E
380E
000E
000E
03FE
1FFC
3F1C
701C
E01C
E01C
E038
E078
F0F8
7FD8
3F98
1E18
ENDCHAR

STARTCHAR atilde
ENCODING 227
SWIDTH 456 0
DWIDTH 17 0
BBX 15 27 1 0
BITMAP
01C0
03E6
03FE
063C
0018
0000
0000
03E0
0FF8
1FFC
1C1E
380E
380E
000E
000E
03FE
1FFC
3F1C
701C
E01C
E01C
E038
E078
F0F8
7FD8
3F98
1E18
ENDCHAR

STARTCHAR adieresis
ENCODING 228
SWIDTH 456 0
DWIDTH 17 0
BBX 15 27 1 0
BITMAP
038E
038E
038E
039C
0000
0000
0000
03F0
0FF8
1FFC
1C1E
380E
380E
000E
000E
03FE
1FFC
3F1C
701C
E01C
E01C
E038
E078
F0F8
7FD8
3F98
1E18
ENDCHAR

STARTCHAR aring
ENCODING 229
SWIDTH 456 0
DWIDTH 17 0
BBX 15 28 2 0
BITMAP
00F0
0198
0108
0108
0108
0198
00F0
0000
03E0
0FF8
1FFC
1C1E
380E
380E
000E
000E
03FE
1FFC
7F1C
701C
E01C
E03C
E038
E078
F0F8
7FD8
3F38
1E18
ENDCHAR

STARTCHAR ae
ENCODING 230
SWIDTH 729 0
DWIDTH 28 0
BBX 26 20 1 0
BITMAP
01E07800
07F9FE00
1FFDFF00
1C1F8380
380F0180
380E01C0
000E01C0
000C01C0
03FFFFC0
3FFFFFC0
7F9FFFC0
701C0000
E01C0000
E03C0380
E03C0700
E07E0700
F0EE1E00
7FC7FC00
3F83F800
1E01E000
ENDCHAR

STARTCHAR iogonek
ENCODING 231
SWIDTH 182 0
DWIDTH 7 0
BBX 8 36 0 -8
BITMAP
03
07
07
07
00
00
00
00
0E
0E
0E
0E
0C
1C
1C
1C
1C
18
18
38
38
38
38
30
30
70
70
70
60
40
C0
C0
C0
E4
FC
78
ENDCHAR

STARTCHAR ccaron
ENCODING 232
SWIDTH 410 0
DWIDTH 16 0
BBX 15 28 2 0
BITMAP
038E
039C
01B8
01D8
01F0
00E0
0000
0000
03E0
0FF8
1FF8
3C3C
381C
701C
7008
7000
6000
E000
E000
E000
E010
E038
E038
7070
70F0
3FE0
3FC0
0F00
ENDCHAR

STARTCHAR eacute
ENCODING 233
SWIDTH 456 0
DWIDTH 17 0
BBX 15 28 2 0
BITMAP
003C
0038
0070
0060
00E0
00C0
0000
0000
03E0
0FF0
1FF8
1C1C
380C
700E
700E
600E
FFFE
FFFE
FFFE
E000
E000
E01C
E038
7038
7870
3FE0
1FC0
0F00
ENDCHAR

STARTCHAR eogonek
ENCODING 234
SWIDTH 456 0
DWIDTH 17 0
BBX 15 28 2 -8
BITMAP
01E0
07F0
0FF8
1E1C
3C0C
380C
700E
700E
700E
FFFE
FFFE
FFFE
E000
E000
E01C
E01C
7038
7870
3FF0
1FE0
0F80
0200
0600
0600
0600
0720
07E0
03C0
ENDCHAR

STARTCHAR edieresis
ENCODING 235
SWIDTH 456 0
DWIDTH 17 0
BBX 15 27 2 0
BITMAP
038E
038E
038E
039C
0000
0000
0000
03E0
0FF0
1FF8
1C1C
380C
700E
700E
600E
FFFE
FFFE
FFFE
E000
E000
E01C
E038
7038
7870
3FE0
1FC0
0F00
ENDCHAR

STARTCHAR edotaccent
ENCODING 236
SWIDTH 456 0
DWIDTH 17 0
BBX 15 26 2 0
BITMAP
0070
0070
0070
00F0
0000
0000
01C0
07F0
0FF8
1C1C
380C
700E
700E
600E
FFFE
FFFE
FFFE
E000
E000
E01C
E038
7038
7870
3FE0
1FC0
0F00
ENDCHAR

STARTCHAR iacute
ENCODING 237
SWIDTH 228 0
DWIDTH 9 0
BBX 9 28 2 0
BITMAP
0380
0700
0700
0E00
0C00
1800
0000
0000
1C00
1C00
1C00
1800
3800
3800
3800
3800
3800
3000
7000
7000
7000
7000
7000
6000
E000
E000
E000
E000
ENDCHAR

STARTCHAR icircumflex
ENCODING 238
SWIDTH 228 0
DWIDTH 9 0
BBX 10 28 2 0
BITMAP
0700
0F00
1D80
3980
3180
71C0
0000
0000
1C00
1C00
1C00
1800
3800
3800
3800
3800
3800
3000
7000
7000
7000
7000
7000
6000
E000
E000
E000
E000
ENDCHAR

STARTCHAR imacron
ENCODING 239
SWIDTH 228 0
DWIDTH 9 0
BBX 11 26 2 0
BITMAP
7FE0
7FC0
7FC0
0000
0000
0000
1C00
1C00
1C00
1800
3800
3800
3800
3800
3800
3000
7000
7000
7000
7000
7000
6000
E000
E000
E000
E000
ENDCHAR

STARTCHAR dcroat
ENCODING 240
SWIDTH 456 0
DWIDTH 17 0
BBX 19 28 2 0
BITMAP
000380
000380
000380
007FE0
007FE0
000300
000700
000700
03C700
0FE700
1FF600
1C3A00
381E00
701E00
700E00
700E00
E00C00
E00C00
E01C00
E01C00
E01C00
E03C00
E03800
707800
78F800
7FD800
3FB800
0E3800
ENDCHAR

STARTCHAR ncommaaccent
ENCODING 241
SWIDTH 456 0
DWIDTH 17 0
BBX 16 28 1 -8
BITMAP
0C3C
0CFE
1DFF
1D87
1E07
1E07
1C07
1C07
3806
380E
380E
380E
380E
300E
700C
701C
701C
701C
701C
E01C
0000
0000
0700
0700
0600
0200
0600
0C00
ENDCHAR

STARTCHAR omacron
ENCODING 242
SWIDTH 456 0
DWIDTH 17 0
BBX 16 25 1 0
BITMAP
03FF
03FF
03FF
0000
0000
01E0
07F8
0FFC
1E1E
380E
3807
7007
7007
6007
E007
E007
E007
E00E
E00E
E01E
703C
7878
3FF0
1FE0
0780
ENDCHAR

STARTCHAR kcommaaccent
ENCODING 243
SWIDTH 410 0
DWIDTH 16 0
BBX 16 36 1 -8
BITMAP
0700
0600
0E00
0E00
0E00
0E00
0C00
1C00
1C0F
1C1E
1C1C
1C38
1870
38E0
39C0
3B80
3BC0
3FC0
3EC0
7CE0
78E0
7060
7070
7070
6070
E038
E038
E03C
0000
0000
0600
0E00
0E00
0400
0C00
1800
ENDCHAR

STARTCHAR ocircumflex
ENCODING 244
SWIDTH 456 0
DWIDTH 17 0
BBX 16 28 1 0
BITMAP
0038
007C
00EC
00CC
01CE
0386
0000
0000
03F0
07F8
1FFC
1E1E
380E
3807
7007
7007
6007
E007
E007
E007
E00E
E00E
E01E
703C
7878
3FF0
1FE0
0780
ENDCHAR

STARTCHAR otilde
ENCODING 245
SWIDTH 456 0
DWIDTH 17 0
BBX 16 27 1 0
BITMAP
01C0
01F3
03FF
033E
000C
0000
0000
01E0
07F8
0FFC
1E1E
380E
3807
7007
7007
6007
E007
E007
E007
E00E
E00E
E01E
703C
7878
3FF0
1FE0
0780
ENDCHAR

STARTCHAR odieresis
ENCODING 246
SWIDTH 456 0
DWIDTH 17 0
BBX 16 27 1 0
BITMAP
01C7
01C7
01CE
038E
0000
0000
0000
03F0
07F8
1FFC
1E1E
380E
3807
7007
7007
6007
E007
E007
E007
E00E
E00E
E01E
703C
7878
3FF0
1FE0
0780
ENDCHAR

STARTCHAR divide
ENCODING 247
SWIDTH 479 0
DWIDTH 18 0
BBX 15 15 3 6
BITMAP
0380
0380
0380
0380
0000
0000
FFFE
FFFE
FFFE
0000
0000
0380
0380
0380
0380
ENDCHAR

STARTCHAR oslash
ENCODING 248
SWIDTH 501 0
DWIDTH 19 0
BBX 16 22 2 -1
BITMAP
0003
01E3
07FE
0FFC
1E1E
3C1E
383B
7077
7067
60C7
E1C7
E187
E307
E60E
EE0E
EC1E
783C
7878
3FF0
7FE0
C780
C000
ENDCHAR

STARTCHAR uogonek
ENCODING 249
SWIDTH 456 0
DWIDTH 17 0
BBX 16 28 2 -8
BITMAP
1807
3807
3806
380E
380E
300E
700E
700E
700C
701C
701C
601C
E01C
E03C
E038
E058
F1F8
7FB8
7F38
3E38
0020
0060
0060
0060
0060
0076
007E
003C
ENDCHAR

STARTCHAR uacute
ENCODING 250
SWIDTH 456 0
DWIDTH 17 0
BBX 16 28 2 0
BITMAP
001C
0038
0070
0070
00E0
00C0
0000
0000
3807
3806
380E
380E
380E
300E
700C
701C
701C
701C
601C
601C
E038
E038
E078
E078
E1D8
7FB8
7F30
1C30
ENDCHAR

STARTCHAR ucircumflex
ENCODING 251
SWIDTH 456 0
DWIDTH 17 0
BBX 16 28 2 0
BITMAP
0078
0078
00EC
01CC
018C
038E
0000
0000
3807
3806
380E
380E
380E
300E
700C
701C
701C
701C
601C
601C
E038
E038
E078
E078
E1D8
7FB8
7F30
1C30
ENDCHAR

STARTCHAR udieresis
ENCODING 252
SWIDTH 456 0
DWIDTH 17 0
BBX 16 27 2 0
BITMAP
01CE
01CE
018E
038E
0000
0000
0000
3807
3806
380E
380E
380E
300E
700C
701C
701C
701C
601C
601C
E038
E038
E078
E078
E1D8
7FB8
7F30
1C30
ENDCHAR

STARTCHAR utilde
ENCODING 253
SWIDTH 456 0
DWIDTH 17 0
BBX 16 27 2 0
BITMAP
0186
03FE
07FC
0618
0000
0000
0000
3807
3806
380E
380E
380E
300E
700C
701C
701C
701C
601C
601C
E038
E038
E078
E078
E1D8
7FB8
7F30
1C30
ENDCHAR

STARTCHAR umacron
ENCODING 254
SWIDTH 456 0
DWIDTH 17 0
BBX 16 26 2 0
BITMAP
03FF
03FE
03FE
0000
0000
0000
3807
3806
380E
380E
380E
300E
700C
701C
701C
701C
601C
601C
E038
E038
E078
E078
E1D8
7FB8
7F30
1C30
ENDCHAR

STARTCHAR dotaccent
ENCODING 255
SWIDTH 273 0
DWIDTH 10 0
BBX 4 4 6 22
BITMAP
70
F0
F0
F0
ENDCHAR
ENDFONT
